<?xml version="1.0" encoding="utf-8"?>
<!-- Generator: Adobe Illustrator 25.2.1, SVG Export Plug-In . SVG Version: 6.00 Build 0)  -->
<svg version="1.1" id="Layer_1" xmlns:v="https://vecta.io/nano"
	 xmlns="http://www.w3.org/2000/svg" xmlns:xlink="http://www.w3.org/1999/xlink" x="0px" y="0px" viewBox="0 0 492 143.6"
	 style="enable-background:new 0 0 492 143.6;" xml:space="preserve">
<style type="text/css">
	.st0{fill:#FF0000;}
	.st1{fill:#FFFFFF;}
	.st2{fill:#282828;}
</style>
<path class="st0" d="M154.3,17.5c-1.8-6.7-7.1-12-13.8-13.8c-12.1-3.3-60.8-3.3-60.8-3.3S31,0.5,18.9,3.8c-6.7,1.8-12,7.1-13.8,13.8
	C1.4,39.1,0,71.9,5.2,92.5c1.8,6.7,7.1,12,13.8,13.8c12.1,3.3,60.8,3.3,60.8,3.3s48.7,0,60.8-3.3c6.7-1.8,12-7.1,13.8-13.8
	C158.3,71,159.5,38.2,154.3,17.5z"/>
<path class="st1" d="M64.2,78.4L104.6,55L64.2,31.6V78.4z"/>
<g>
	<path class="st2" d="M227.9,99.7c-3.1-2.1-5.3-5.3-6.6-9.7s-1.9-10.2-1.9-17.5v-9.9c0-7.3,0.7-13.3,2.2-17.7c1.5-4.5,3.8-7.7,7-9.7
		s7.3-3.1,12.4-3.1c5,0,9.1,1,12.1,3.1c3,2.1,5.3,5.3,6.7,9.7s2.1,10.3,2.1,17.6v9.9c0,7.3-0.7,13.1-2.1,17.5s-3.6,7.6-6.7,9.7
		c-3.1,2-7.3,3.1-12.5,3.1C235.2,102.8,231,101.7,227.9,99.7z M245.2,89c0.9-2.2,1.3-5.9,1.3-10.9V56.8c0-4.9-0.4-8.5-1.3-10.7
		c-0.9-2.3-2.4-3.4-4.5-3.4s-3.5,1.1-4.4,3.4s-1.3,5.8-1.3,10.7v21.3c0,5,0.4,8.7,1.2,10.9s2.3,3.3,4.5,3.3
		C242.8,92.3,244.3,91.2,245.2,89z M464.4,72.7v3.5l0.4,9.9c0.3,2.2,0.8,3.8,1.6,4.8s2.1,1.5,3.8,1.5c2.3,0,3.9-0.9,4.7-2.7
		c0.9-1.8,1.3-4.8,1.4-8.9l13.3,0.8c0.1,0.6,0.1,1.4,0.1,2.4c0,6.3-1.7,11-5.2,14.1s-8.3,4.7-14.6,4.7c-7.6,0-12.9-2.4-15.9-7.1
		s-4.6-12.1-4.6-22V61.6c0.3-17,3.3-29.5,20.9-29.5c5.3,0,9.3,1,12.1,2.9s4.8,4.9,6,9s1.7,9.7,1.7,16.9v11.7L464.4,72.7L464.4,72.7z
		 M466.4,43.9c-0.8,1-1.3,2.5-1.6,4.7s-0.4,10-0.4,10v4.9h11.2v-4.9c0,4.9-0.1-7.7-0.4-10s-0.8-3.9-1.6-4.8s-2-1.4-3.6-1.4
		C468.3,42.5,467.1,43,466.4,43.9z M190.5,71.4L173,8.2h15.3c0,0,7.1,31.7,9.6,46.6h0.4c2.8-15.8,9.8-46.6,9.8-46.6h15.3l-17.7,63.1
		v30.3h-15.1V71.4H190.5z"/>
	<path id="A" class="st2" d="M311.5,33.4v68.3h-12l-1.3-8.4h-0.3c-3.3,6.3-8.2,9.5-14.7,9.5c-11.8,0-13.1-10-13.2-18.4v-51h15.4
		v50.1c0,3,0.3,5.2,1,6.5c1.4,2.8,5.1,2.1,7.1,0.7c1.2-0.8,2.1-1.8,2.7-3.1V33.4H311.5z"/>
	<path class="st2" d="M353.3,20.6H338v81.1h-15V20.6h-15.3V8.2h45.5L353.3,20.6L353.3,20.6z M441.2,44.3c-0.9-4.3-2.4-7.4-4.5-9.4
		c-2.1-1.9-4.9-2.9-8.6-2.9c-2.8,0-5.6,0.8-7.9,2.4c-2.5,1.6-4.3,3.7-5.7,6.3h-0.1v-36h-14.8v96.9h12.7l1.6-6.5h0.3
		c1.2,2.3,3.1,4.2,5.3,5.5c2.4,1.3,5,2,7.9,2c5.2,0,9-2.4,11.5-7.2c2.4-4.8,3.7-12.3,3.7-22.4V62.2
		C442.6,54.6,442.1,48.6,441.2,44.3z M427.1,72.2c0,5-0.2,8.9-0.6,11.7s-1.1,4.8-2.1,6s-2.3,1.8-3.9,1.8c-3.1-0.1-4.9-1.5-6.1-3.6
		V49.3c0.5-1.9,1.4-3.4,2.7-4.6c2.2-2.5,6-2.5,7.7,0c0.9,1.2,1.4,3.3,1.8,6.2c0.3,2.9,0.5,7,0.5,12.4V72.2z"/>
</g>
<g>
	<path id="A_1_" class="st2" d="M390.4,33.4v68.3h-12l-1.3-8.4h-0.3c-3.3,6.3-8.2,9.5-14.7,9.5c-11.8,0-13.1-10-13.2-18.4v-51h15.4
		v50.1c0,3,0.3,5.2,1,6.5c1.4,2.8,5.1,2.1,7.1,0.7c1.2-0.8,2.1-1.8,2.7-3.1V33.4H390.4z"/>
</g>
<g>
	<path class="st2" d="M176.7,143.1c-0.1-0.1-0.2-0.3-0.2-0.5v-18h-5.9c-0.2,0-0.4-0.1-0.5-0.2c-0.1-0.1-0.2-0.3-0.2-0.5v-1.3
		c0-0.2,0.1-0.4,0.2-0.5c0.1-0.1,0.3-0.2,0.5-0.2h14.7c0.2,0,0.4,0.1,0.5,0.2c0.1,0.1,0.2,0.3,0.2,0.5v1.3c0,0.2-0.1,0.4-0.2,0.5
		c-0.1,0.1-0.3,0.2-0.5,0.2h-5.8v18c0,0.2-0.1,0.4-0.2,0.5c-0.1,0.1-0.3,0.2-0.5,0.2h-1.6C177,143.3,176.9,143.2,176.7,143.1z"/>
	<path class="st2" d="M190.6,141.5c-1.5-1.4-2.2-3.5-2.3-6.3c0-0.6,0-1.5,0-2.6s0-2,0-2.6c0.1-2.7,0.9-4.8,2.4-6.3
		c1.5-1.4,3.5-2.2,6.1-2.2c2.5,0,4.6,0.7,6.1,2.2c1.5,1.4,2.3,3.5,2.4,6.3c0,1.2,0.1,2,0.1,2.6c0,0.5,0,1.4-0.1,2.6
		c-0.1,2.8-0.9,4.9-2.3,6.3c-1.5,1.4-3.5,2.1-6.2,2.1C194.1,143.6,192,142.9,190.6,141.5z M200.6,139.5c1-1,1.5-2.5,1.6-4.5
		c0-1.2,0.1-2,0.1-2.4c0-0.4,0-1.3-0.1-2.4c-0.1-2-0.6-3.5-1.6-4.5c-1-1-2.2-1.5-3.8-1.5c-1.6,0-2.9,0.5-3.9,1.5s-1.5,2.5-1.6,4.5
		c0,0.6,0,1.4,0,2.4c0,1,0,1.8,0,2.4c0.1,2,0.6,3.5,1.6,4.5s2.3,1.5,3.9,1.5C198.4,141,199.7,140.5,200.6,139.5z"/>
	<path class="st2" d="M219.7,142.8c-1.2-0.5-2.2-1.2-2.8-2.1c-0.7-0.9-1-1.8-1-2.8c0-0.2,0.1-0.3,0.2-0.4s0.3-0.2,0.5-0.2h1.6
		c0.4,0,0.7,0.2,0.8,0.6c0.2,0.9,0.7,1.6,1.6,2.2c0.9,0.6,2.1,0.9,3.7,0.9c1.7,0,3-0.3,3.8-0.9s1.3-1.4,1.3-2.5
		c0-0.7-0.2-1.3-0.6-1.7s-1-0.8-1.8-1.1c-0.8-0.3-2-0.7-3.7-1.2c-1.6-0.4-2.9-0.9-3.8-1.4c-0.9-0.5-1.6-1.1-2.1-1.9
		c-0.5-0.8-0.7-1.7-0.7-2.8c0-1.1,0.3-2.1,0.9-3c0.6-0.9,1.5-1.6,2.6-2.1s2.5-0.7,4-0.7c1.6,0,3,0.3,4.1,0.8c1.1,0.6,2,1.3,2.6,2.1
		s0.9,1.7,0.9,2.6c0,0.2-0.1,0.3-0.2,0.4c-0.1,0.1-0.3,0.2-0.5,0.2h-1.6c-0.4,0-0.7-0.2-0.8-0.6c-0.1-0.9-0.6-1.6-1.4-2.1
		c-0.8-0.6-1.9-0.8-3.1-0.8c-1.4,0-2.5,0.3-3.3,0.8s-1.2,1.3-1.2,2.4c0,0.7,0.2,1.3,0.6,1.7c0.4,0.4,1,0.8,1.7,1.2s1.9,0.7,3.4,1.1
		c1.7,0.5,3.1,1,4.1,1.5c1,0.5,1.7,1.1,2.2,1.9s0.7,1.7,0.7,2.8c0,1.9-0.7,3.4-2.2,4.5s-3.4,1.6-5.9,1.6
		C222.4,143.6,221,143.3,219.7,142.8z"/>
	<path class="st2" d="M237.7,141.4c-1.4-1.5-2.2-3.5-2.3-6.1c0-0.5,0-1.4,0-2.7c0-1.3,0-2.2,0-2.7c0.1-2.6,0.9-4.6,2.3-6.1
		c1.4-1.5,3.5-2.2,6.2-2.2c1.8,0,3.3,0.3,4.6,1c1.3,0.6,2.2,1.5,2.9,2.5c0.7,1,1,2.1,1.1,3.3v0.1c0,0.2-0.1,0.3-0.2,0.4
		c-0.1,0.1-0.3,0.2-0.4,0.2h-1.7c-0.4,0-0.7-0.2-0.8-0.7c-0.3-1.5-1-2.6-1.9-3.2c-0.9-0.6-2.1-0.9-3.6-0.9c-3.5,0-5.3,1.9-5.4,5.8
		c0,0.5,0,1.4,0,2.5s0,2,0,2.6c0.1,3.9,1.9,5.8,5.4,5.8c1.5,0,2.7-0.3,3.6-0.9c0.9-0.6,1.5-1.7,1.8-3.2c0.1-0.3,0.2-0.4,0.3-0.5
		c0.1-0.1,0.3-0.2,0.5-0.2h1.7c0.2,0,0.3,0.1,0.5,0.2c0.1,0.1,0.2,0.3,0.2,0.4c-0.1,1.2-0.4,2.3-1.1,3.4c-0.7,1-1.6,1.9-2.9,2.5
		c-1.3,0.6-2.8,1-4.6,1C241.2,143.6,239.1,142.9,237.7,141.4z"/>
	<path class="st2" d="M258.1,141.5c-1.5-1.4-2.2-3.5-2.3-6.3c0-0.6,0-1.5,0-2.6s0-2,0-2.6c0.1-2.7,0.9-4.8,2.4-6.3
		c1.5-1.4,3.5-2.2,6.1-2.2c2.5,0,4.6,0.7,6.1,2.2c1.5,1.4,2.3,3.5,2.4,6.3c0,1.2,0.1,2,0.1,2.6c0,0.5,0,1.4-0.1,2.6
		c-0.1,2.8-0.9,4.9-2.3,6.3c-1.5,1.4-3.5,2.1-6.2,2.1C261.6,143.6,259.6,142.9,258.1,141.5z M268.1,139.5c1-1,1.5-2.5,1.6-4.5
		c0-1.2,0.1-2,0.1-2.4c0-0.4,0-1.3-0.1-2.4c-0.1-2-0.6-3.5-1.6-4.5s-2.2-1.5-3.8-1.5c-1.6,0-2.9,0.5-3.9,1.5s-1.5,2.5-1.6,4.5
		c0,0.6,0,1.4,0,2.4c0,1,0,1.8,0,2.4c0.1,2,0.6,3.5,1.6,4.5s2.3,1.5,3.9,1.5S267.2,140.5,268.1,139.5z"/>
	<path class="st2" d="M277.5,143.1c-0.1-0.1-0.2-0.3-0.2-0.5v-19.9c0-0.2,0.1-0.4,0.2-0.5c0.1-0.1,0.3-0.2,0.5-0.2h7.5
		c2.3,0,4.2,0.5,5.5,1.6c1.3,1.1,2,2.7,2,4.8c0,1.5-0.4,2.8-1.1,3.8c-0.8,1-1.8,1.7-3.2,2.1l4.7,8.1c0.1,0.1,0.1,0.2,0.1,0.3
		c0,0.2-0.1,0.3-0.2,0.4s-0.3,0.2-0.4,0.2h-1.5c-0.3,0-0.5-0.1-0.7-0.2c-0.2-0.1-0.3-0.3-0.5-0.6l-4.4-7.8h-5.3v7.9
		c0,0.2-0.1,0.4-0.2,0.5s-0.3,0.2-0.5,0.2H278C277.8,143.3,277.6,143.2,277.5,143.1z M285.3,132.1c3,0,4.6-1.3,4.6-3.8
		s-1.5-3.8-4.6-3.8h-5v7.6H285.3z"/>
	<path class="st2" d="M297.5,143.1c-0.1-0.1-0.2-0.3-0.2-0.5v-19.9c0-0.2,0.1-0.4,0.2-0.5c0.1-0.1,0.3-0.2,0.5-0.2h1.5
		c0.3,0,0.6,0.2,0.8,0.5l6.4,12.3l6.5-12.3c0-0.1,0.1-0.2,0.3-0.3c0.1-0.1,0.3-0.2,0.5-0.2h1.5c0.2,0,0.4,0.1,0.5,0.2
		c0.1,0.1,0.2,0.3,0.2,0.5v19.9c0,0.2-0.1,0.4-0.2,0.5s-0.3,0.2-0.5,0.2H314c-0.2,0-0.4-0.1-0.5-0.2c-0.1-0.1-0.2-0.3-0.2-0.5v-15
		l-5.1,10c-0.2,0.4-0.5,0.6-1,0.6h-0.9c-0.4,0-0.8-0.2-1-0.6l-5.1-10v15c0,0.2-0.1,0.4-0.2,0.5c-0.1,0.1-0.3,0.2-0.5,0.2H298
		C297.8,143.3,297.6,143.2,297.5,143.1z"/>
</g>
</svg>
